<svg width="322" height="176" viewBox="0 0 322 176" fill="none" xmlns="http://www.w3.org/2000/svg">
<path fill-rule="evenodd" clip-rule="evenodd" d="M70.7698 16.2556C89.6469 -5.41853 120.253 -5.41852 139.13 16.2556L195.173 80.6023C214.05 102.276 214.05 137.417 195.173 159.091C176.296 180.765 145.69 180.765 126.813 159.091L70.7697 94.7444C51.8926 73.0703 51.8926 37.9297 70.7698 16.2556ZM146.516 136.469L90.473 72.1218C82.4777 62.9418 82.4777 48.0582 90.473 38.8782C98.4683 29.6982 111.431 29.6982 119.427 38.8782L175.47 103.225C183.465 112.405 183.465 127.289 175.47 136.469C167.474 145.648 154.511 145.648 146.516 136.469Z" fill="white"/>
<path d="M211.8 127.672L239.482 159.456C258.359 181.13 288.965 181.13 307.842 159.456C326.72 137.782 326.72 102.641 307.842 80.9673L251.8 16.6206C238.578 1.43956 219.602 -3.10835 202.932 2.97686L261.668 70.4155L260.457 71.806L288.139 103.59C296.135 112.77 296.135 127.654 288.139 136.834C280.144 146.013 267.181 146.013 259.186 136.833L231.503 105.05L211.8 127.672Z" fill="white"/>
<path d="M88.1846 107.34L62.8147 136.469C54.8194 145.648 41.8564 145.648 33.8611 136.469C25.8657 127.289 25.8657 112.405 33.861 103.225L89.904 38.8782C92.6992 35.6688 96.1016 33.5814 99.6867 32.6161L125.161 5.37321C107.204 -4.43949 85.0658 -0.812029 70.2007 16.2556L14.1578 80.6023C-4.71928 102.276 -4.71927 137.417 14.1578 159.091C33.0349 180.765 63.6408 180.765 82.5179 159.091L108.587 129.159L88.1846 107.34Z" fill="white"/>
<path d="M231.464 72.1218L175.421 136.469C172.957 139.298 170.021 141.255 166.904 142.34L142.007 170.926C159.615 179.524 180.764 175.579 195.124 159.091L251.167 94.7444C270.044 73.0703 270.044 37.9297 251.167 16.2556C232.29 -5.41853 201.684 -5.41852 182.807 16.2556L142.471 62.5679L162.174 85.1905L202.51 38.8782C210.506 29.6982 223.469 29.6982 231.464 38.8782C239.459 48.0582 239.459 62.9418 231.464 72.1218Z" fill="white"/>
</svg>
